<?xml version="1.0" encoding="UTF-8" standalone="no"?>
<!-- Svg Vector Icons : http://www.onlinewebfonts.com/icon -->

<svg
   version="1.1"
   x="0px"
   y="0px"
   viewBox="0 0 1000 1000"
   enable-background="new 0 0 1000 1000"
   xml:space="preserve"
   id="svg8"
   sodipodi:docname="menu.svg"
   inkscape:version="1.1 (c68e22c387, 2021-05-23)"
   xmlns:inkscape="http://www.inkscape.org/namespaces/inkscape"
   xmlns:sodipodi="http://sodipodi.sourceforge.net/DTD/sodipodi-0.dtd"
   xmlns="http://www.w3.org/2000/svg"
   xmlns:svg="http://www.w3.org/2000/svg"><defs
   id="defs12" /><sodipodi:namedview
   id="namedview10"
   pagecolor="#ffffff"
   bordercolor="#666666"
   borderopacity="1.0"
   inkscape:pageshadow="2"
   inkscape:pageopacity="0.0"
   inkscape:pagecheckerboard="0"
   showgrid="false"
   inkscape:zoom="0.652"
   inkscape:cx="499.23313"
   inkscape:cy="500.76687"
   inkscape:window-width="1600"
   inkscape:window-height="837"
   inkscape:window-x="-8"
   inkscape:window-y="-8"
   inkscape:window-maximized="1"
   inkscape:current-layer="svg8" />
<metadata
   id="metadata2"> Svg Vector Icons : http://www.onlinewebfonts.com/icon </metadata>
<g
   id="g6"
   style="fill:#cd5b1d;fill-opacity:1"><path
     d="m 91.7,193.8 z m 816.6,81.6 H 91.7 C 46.6,275.4 10,238.8 10,193.7 10,148.6 46.6,112 91.7,112 h 816.7 c 45.1,0 81.7,36.6 81.7,81.7 -0.1,45.2 -36.7,81.7 -81.8,81.7 z M 91.7,500 Z m 816.6,81.7 H 91.7 C 46.6,581.7 10,545.1 10,500 10,454.9 46.6,418.3 91.7,418.3 h 816.7 c 45.1,0 81.7,36.6 81.7,81.7 -0.1,45.1 -36.7,81.7 -81.8,81.7 z M 91.7,806.2 Z m 816.6,81.7 H 91.7 C 46.6,887.9 10,851.3 10,806.2 10,761.1 46.6,724.5 91.7,724.5 h 816.7 c 45.1,0 81.7,36.6 81.7,81.7 -0.1,45.1 -36.7,81.7 -81.8,81.7 z"
     id="path4"
     style="fill:#cd5b1d;fill-opacity:1" /></g>
</svg>
